<svg width="256" height="205" xmlns="http://www.w3.org/2000/svg" preserveAspectRatio="xMidYMid meet">

 <g>
  <title>background</title>
  <rect fill="none" id="canvas_background" height="602" width="802" y="-1" x="-1"/>
 </g>
 <g>
  <title>Layer 1</title>
  <g id="svg_1" fill="none" transform="translate(0,205) scale(0.10000000149011612,-0.10000000149011612) ">
   <path fill="#ffff00" id="svg_2" d="m145,1889c-32,-19 -115,-102 -131,-131c-33,-62 -30,-66 224,-323c130,-132 274,-279 320,-326l83,-85l-321,-326c-340,-347 -338,-345 -306,-406c17,-32 101,-115 135,-132c56,-29 65,-21 499,413c403,404 412,413 412,452c0,39 -9,48 -413,452c-357,358 -417,414 -447,418c-19,3 -44,0 -55,-6z"/>
   <path fill="#ffff00" id="svg_3" d="m1184,416c-33,-33 -34,-35 -34,-120c0,-92 14,-137 49,-156c13,-6 240,-10 661,-10l642,0l29,29c28,28 29,33 29,121c0,102 -13,139 -55,158c-19,9 -189,12 -656,12l-631,0l-34,-34z"/>
  </g>
 </g>
</svg>